# xmcd
#
# Track frame offsets:
#	150
#	18044
#	33598
#	49191
#	65907
#	79948
#	100472
#	113959
#	128537
#	141116
#	153190
#	166137
#	179140
#	191252
#	208089
#	221154
#	235544
#	250165
#	263665
#	278579
#	293029
#	310219
#	325200
#	339512
#
# Disc length: 4754
#
# Revision: 1
# Processed by: cddbd v1.5.1PL0 Copyright (c) Steve Scherf et al.
# Submitted via: dBpowerAMP V4.0
# Normalized: r0:TDELIM( - )
#
DISCID=5c129018
DTITLE=Various Artist - Hot Party Summer 2003
DYEAR=2003
DGENRE=Dance
TTITLE0=Eiffel 65 - Viaggia Insieme A Me
TTITLE1=DJ Fransesco - La Canzone Del Capitano
TTITLE2=DJ Prezioso feat. Marvin - Voglio Vederti Danzare
TTITLE3=DJ Lasha vs Gabry Ponte - Giulia (Remix)
TTITLE4=DanijayI feat. Hellen - Il Gioco Dell'Amore
TTITLE5=Gabry Ponte - The Man In The Moon (Remix)
TTITLE6=Gigi d'Agostino - Tauros
TTITLE7=Brothers - Sexy Girl (Italian Version)
TTITLE8=Exchpoptrue - Discoteca
TTITLE9=Fargetta feat. Jo Ann - Cantare Sognare
TTITLE10=Farolfi feat. George - Gimme So Love
TTITLE11=Snap! vs Motivo - The Power
TTITLE12=Panjabi  MC - Jogi
TTITLE13=Safeway - Fallin
TTITLE14=Astroboys - The Road
TTITLE15=Human Traffic - Now
TTITLE16=Stylophonic - Soulreply
TTITLE17=Jason James - Yesterday
TTITLE18=Milky - Non So Perchè
TTITLE19=DJ Bobo - Chihuahua
TTITLE20=Neffe - Prima Di Andare Via
TTITLE21=Will Young - Light My Fire
TTITLE22=Ray - Ti Porto Al Mare
TTITLE23=Andrea Cardillo - Ma Dai
EXTD=
EXTT0=
EXTT1=
EXTT2=
EXTT3=
EXTT4=
EXTT5=
EXTT6=
EXTT7=
EXTT8=
EXTT9=
EXTT10=
EXTT11=
EXTT12=
EXTT13=
EXTT14=
EXTT15=
EXTT16=
EXTT17=
EXTT18=
EXTT19=
EXTT20=
EXTT21=
EXTT22=
EXTT23=
PLAYORDER=
